<svg xmlns="http://www.w3.org/2000/svg" viewBox="0 0 128 128">
  <defs>
    <linearGradient id="banana" x1="0" y1="0" x2="1" y2="1">
      <stop offset="0" stop-color="#ffe56b"/>
      <stop offset="1" stop-color="#f2b741"/>
    </linearGradient>
    <linearGradient id="banana-shadow" x1="0" y1="0" x2="1" y2="0">
      <stop offset="0" stop-color="#d89b33"/>
      <stop offset="1" stop-color="#f2b741"/>
    </linearGradient>
  </defs>
  <path
    d="M24 82c14 24 46 36 74 18 18-12 24-36 22-56-1-7-9-7-11 0-4 13-12 26-25 35-21 15-45 10-60-6z"
    fill="url(#banana)"
    stroke="#ad7a1e"
    stroke-width="4"
    stroke-linecap="round"
    stroke-linejoin="round"
  />
  <path
    d="M26 83c16 18 39 23 58 12"
    fill="none"
    stroke="url(#banana-shadow)"
    stroke-width="5"
    stroke-linecap="round"
  />
  <path
    d="M98 32c6 6 10 14 12 22"
    fill="none"
    stroke="#754c15"
    stroke-width="5"
    stroke-linecap="round"
  />
  <path
    d="M19 79c3 6 8 11 13 15"
    fill="none"
    stroke="#754c15"
    stroke-width="6"
    stroke-linecap="round"
  />
</svg>
